# xmcd CD database file
#
# Track frame offsets:
#	150
#	30075
#	49636
#	79649
#	97186
#	110002
#	126149
#	137979
#	149898
#	164981
#	180146
#	193011
#	208204
#	233248
#	251429
#	268319
#	288274
#	309251
#
# Disc length: 4455 seconds
#
# Revision: 1
# Processed by: cddbd v1.5.2PL0 Copyright (c) Steve Scherf et al.
# Submitted via: CDex 1.70beta2
#
DISCID=0e116512
DTITLE=Bob Brookmeyer - The Essential Collection CD1
DYEAR=1954
DGENRE=Jazz
TTITLE0=9.20 Sepcial
TTITLE1=I Never Knew
TTITLE2=Steeplechase
TTITLE3=Lover Man
TTITLE4=Liberty Belle
TTITLE5=Have You Met Miss Jones?
TTITLE6=Traditional Blues
TTITLE7=Isnt It Romantic
TTITLE8=Doe Eyes
TTITLE9=Red Devil
TTITLE10=Last Chance
TTITLE11=Body And Soul
TTITLE12=You Took Advantage Of Me
TTITLE13=He Aint Got Rhythm
TTITLE14=What Is There To Say
TTITLE15=There Will Never Be Another You
TTITLE16=Jasmin
TTITLE17=Sticks And Stems
EXTD=YEAR: 1954
EXTT0=
EXTT1=
EXTT2=
EXTT3=
EXTT4=
EXTT5=
EXTT6=
EXTT7=
EXTT8=
EXTT9=
EXTT10=
EXTT11=
EXTT12=
EXTT13=
EXTT14=
EXTT15=
EXTT16=
EXTT17=
PLAYORDER=
